<svg width="26" height="34" viewBox="0 0 26 34" fill="none" xmlns="http://www.w3.org/2000/svg">
<path fill-rule="evenodd" clip-rule="evenodd" d="M11.6535 0.244454C12.2444 -0.0780097 12.9578 -0.0816556 13.5518 0.234752L24.042 5.82184C24.8428 6.24838 25.1629 7.0187 25.0963 7.75196L25.0023 26.205C25.0011 26.4397 24.9191 26.6552 24.7828 26.8251C24.6247 27.234 24.3208 27.6015 23.8521 27.8513L13.3695 33.4381C12.7751 33.7549 12.0613 33.7512 11.4702 33.4284L1.04475 27.7347C0.211434 27.2796 -0.0915702 26.4536 0.0234522 25.6919L0.116706 7.37928C0.118284 7.06936 0.260679 6.79309 0.482945 6.6108C0.653252 6.34773 0.896949 6.11513 1.22061 5.93848L11.6535 0.244454Z" fill="#1CB0F6"/>
<path fill-rule="evenodd" clip-rule="evenodd" d="M12.8685 9.79718C13.4092 9.70787 13.8536 9.17322 13.6788 8.53989L12.5233 4.35386C12.3424 3.69818 11.5737 3.41061 11.0068 3.78647L8.75634 5.27851C8.68174 5.32797 8.61636 5.38512 8.56029 5.44804L5.41574 7.51226L5.4449 7.55667C5.3833 7.58883 5.32399 7.62801 5.26803 7.6744L4.38325 8.40794C3.9136 8.7973 3.89902 9.51283 4.35243 9.92099L7.29504 12.57C7.76352 12.9917 8.35468 12.8685 8.69591 12.5091L8.70836 12.5281L12.8685 9.79718Z" fill="#DDF4FF"/>
</svg>
